<svg width="13" height="14" viewBox="0 0 13 14" fill="none" xmlns="http://www.w3.org/2000/svg">
<g clip-path="url(#clip0_427_171)">
<path d="M12.6235 4.26552V11.2965C12.6235 11.9434 12.0986 12.4683 11.4517 12.4683H1.29585C0.648905 12.4683 0.124023 11.9434 0.124023 11.2965V4.26552C0.124023 3.61857 0.648905 3.09369 1.29585 3.09369H3.4442L3.74448 2.2905C3.91538 1.83397 4.35237 1.53125 4.84063 1.53125H7.90448C8.39274 1.53125 8.82973 1.83397 9.00062 2.2905L9.30334 3.09369H11.4517C12.0986 3.09369 12.6235 3.61857 12.6235 4.26552ZM9.30334 7.781C9.30334 6.16485 7.98992 4.85143 6.37377 4.85143C4.75763 4.85143 3.4442 6.16485 3.4442 7.781C3.4442 9.39715 4.75763 10.7106 6.37377 10.7106C7.98992 10.7106 9.30334 9.39715 9.30334 7.781ZM8.52213 7.781C8.52213 8.96504 7.55781 9.92935 6.37377 9.92935C5.18974 9.92935 4.22542 8.96504 4.22542 7.781C4.22542 6.59697 5.18974 5.63265 6.37377 5.63265C7.55781 5.63265 8.52213 6.59697 8.52213 7.781Z" fill="#FF9966"/>
</g>
<defs>
<clipPath id="clip0_427_171">
<rect width="12.4995" height="12.4995" fill="white" transform="translate(0.124023 0.75)"/>
</clipPath>
</defs>
</svg>
