<svg width="16" height="16" viewBox="0 0 16 16" fill="none" xmlns="http://www.w3.org/2000/svg">
<g clip-path="url(#clip0_427_337)">
<path d="M2.6 16L13.24 16C13.6597 16 14 15.6642 14 15.25L14 14.75C14 14.3358 13.6597 14 13.24 14C13.24 11.1573 11.6245 8.75831 9.41334 8C11.6245 7.24169 13.24 4.84266 13.24 2C13.6597 2 14 1.66422 14 1.25L14 0.75C14 0.335781 13.6597 -2.97463e-08 13.24 -6.64413e-08L2.6 -9.9662e-07C2.18026 -1.03331e-06 1.84 0.33578 1.84 0.749999L1.84 1.25C1.84 1.66422 2.18026 2 2.6 2C2.6 4.84266 4.21551 7.24169 6.42666 8C4.21551 8.75831 2.6 11.1573 2.6 14C2.18026 14 1.84 14.3358 1.84 14.75L1.84 15.25C1.84 15.6642 2.18026 16 2.6 16ZM4.62667 2L11.2133 2C11.2133 4.42056 9.75021 6.5 7.92 6.5C6.09011 6.5 4.62667 4.42134 4.62667 2Z" fill="#333333"/>
</g>
<defs>
<clipPath id="clip0_427_337">
<rect width="16" height="16" fill="white"/>
</clipPath>
</defs>
</svg>
