<svg width="34" height="34" viewBox="0 0 34 34" fill="none" xmlns="http://www.w3.org/2000/svg">
<g clip-path="url(#clip0_427_339)">
<path d="M33.3625 29.2467L26.7759 22.6601C26.4786 22.3628 26.0756 22.1976 25.6528 22.1976H24.576C26.3993 19.8656 27.4828 16.9323 27.4828 13.7414C27.4828 6.1506 21.3322 0 13.7414 0C6.1506 0 0 6.1506 0 13.7414C0 21.3322 6.1506 27.4828 13.7414 27.4828C16.9323 27.4828 19.8656 26.3993 22.1976 24.576V25.6528C22.1976 26.0756 22.3628 26.4786 22.6601 26.7759L29.2467 33.3625C29.8677 33.9835 30.8719 33.9835 31.4863 33.3625L33.3559 31.4929C33.9769 30.8719 33.9769 29.8677 33.3625 29.2467ZM13.7414 22.1976C9.07064 22.1976 5.28515 18.4188 5.28515 13.7414C5.28515 9.07064 9.06404 5.28515 13.7414 5.28515C18.4122 5.28515 22.1976 9.06404 22.1976 13.7414C22.1976 18.4122 18.4188 22.1976 13.7414 22.1976Z" fill="#FF9966"/>
</g>
<defs>
<clipPath id="clip0_427_339">
<rect width="33.8283" height="33.8283" fill="white"/>
</clipPath>
</defs>
</svg>
