<svg width="32" height="35" viewBox="0 0 32 35" fill="none" xmlns="http://www.w3.org/2000/svg">
<g filter="url(#filter0_d_427_174)">
<circle cx="17.6619" cy="15.9998" r="14.3377" fill="white"/>
<circle cx="17.6619" cy="15.9998" r="13.97" stroke="#E5E5E5" stroke-width="0.735265"/>
</g>
<path d="M18.7078 11.9561H12.4494C11.8765 11.9561 11.4121 12.417 11.4121 12.9857V19.1981C11.4121 19.7668 11.8765 20.2278 12.4494 20.2278H18.7078C19.2807 20.2278 19.7451 19.7668 19.7451 19.1981V12.9857C19.7451 12.417 19.2807 11.9561 18.7078 11.9561ZM22.8179 12.7681L20.4395 14.3966V17.7872L22.8179 19.4135C23.278 19.728 23.9116 19.4071 23.9116 18.8578V13.3239C23.9116 12.7768 23.2801 12.4537 22.8179 12.7681Z" fill="#FF9966"/>
<defs>
<filter id="filter0_d_427_174" x="0.38316" y="0.19158" width="34.5579" height="34.5579" filterUnits="userSpaceOnUse" color-interpolation-filters="sRGB">
<feFlood flood-opacity="0" result="BackgroundImageFix"/>
<feColorMatrix in="SourceAlpha" type="matrix" values="0 0 0 0 0 0 0 0 0 0 0 0 0 0 0 0 0 0 127 0" result="hardAlpha"/>
<feOffset dy="1.47053"/>
<feGaussianBlur stdDeviation="1.47053"/>
<feComposite in2="hardAlpha" operator="out"/>
<feColorMatrix type="matrix" values="0 0 0 0 0 0 0 0 0 0 0 0 0 0 0 0 0 0 0.06 0"/>
<feBlend mode="normal" in2="BackgroundImageFix" result="effect1_dropShadow_427_174"/>
<feBlend mode="normal" in="SourceGraphic" in2="effect1_dropShadow_427_174" result="shape"/>
</filter>
</defs>
</svg>
