<svg width="101" height="100" viewBox="0 0 101 100" fill="none" xmlns="http://www.w3.org/2000/svg">
<circle cx="50.3605" cy="49.6691" r="49.6691" fill="white"/>
<path fill-rule="evenodd" clip-rule="evenodd" d="M50.3605 98.3449C77.2434 98.3449 99.0363 76.552 99.0363 49.6691C99.0363 22.7863 77.2434 0.993382 50.3605 0.993382C23.4777 0.993382 1.68479 22.7863 1.68479 49.6691C1.68479 76.552 23.4777 98.3449 50.3605 98.3449ZM50.3605 99.3382C77.792 99.3382 100.03 77.1006 100.03 49.6691C100.03 22.2376 77.792 0 50.3605 0C22.929 0 0.691406 22.2376 0.691406 49.6691C0.691406 77.1006 22.929 99.3382 50.3605 99.3382Z" fill="#4D00B4"/>
<rect width="61.5897" height="61.5897" transform="translate(19.5654 18.8743)" fill="white"/>
<g clip-path="url(#clip0_79_12310)">
<path d="M78.6716 49.6691C78.6716 34.0331 65.9962 21.3577 50.3602 21.3577C34.7243 21.3577 22.0488 34.0331 22.0488 49.6691C22.0488 65.305 34.7243 77.9805 50.3602 77.9805C65.9962 77.9805 78.6716 65.305 78.6716 49.6691Z" fill="black"/>
<path fill-rule="evenodd" clip-rule="evenodd" d="M34.8613 65.168L62.6621 42.0179C63.0027 41.7211 63.2785 41.3573 63.4727 40.9494C63.6668 40.5414 63.7751 40.0979 63.7908 39.6464C63.8065 39.1949 63.7292 38.7449 63.5638 38.3245C63.3984 37.9041 63.1484 37.5222 62.8293 37.2023C62.5094 36.8825 62.1272 36.6319 61.7063 36.4662C61.2854 36.3003 60.835 36.2229 60.3829 36.2386C59.9309 36.2543 59.4868 36.3628 59.0784 36.5573C58.6701 36.7519 58.3061 37.0283 58.0091 37.3695L34.8613 65.168ZM48.2727 40.51L36.567 49.2885L45.3463 37.5839C45.5257 37.3446 45.7546 37.1466 46.0173 37.0033C46.2799 36.8601 46.5704 36.7748 46.8688 36.7534C47.1673 36.732 47.4667 36.7749 47.7471 36.8793C48.0276 36.9835 48.2823 37.1469 48.4942 37.3581C48.7064 37.5697 48.8706 37.8245 48.9757 38.1051C49.0809 38.3858 49.1243 38.6857 49.1033 38.9847C49.0823 39.2836 48.9973 39.5746 48.854 39.8377C48.7107 40.1009 48.5124 40.3302 48.2727 40.51ZM62.4451 54.6838L50.7395 63.4622L59.5187 51.7576C59.6983 51.5183 59.9271 51.3204 60.1898 51.1771C60.4525 51.0338 60.7427 50.9486 61.0412 50.9272C61.3396 50.9058 61.6392 50.9487 61.9196 51.0531C62.2 51.1573 62.4548 51.3207 62.6666 51.5319C62.8789 51.7435 63.0432 51.9983 63.1482 52.2789C63.2533 52.5596 63.2968 52.8595 63.2757 53.1584C63.2548 53.4574 63.1696 53.7483 63.0263 54.0115C62.883 54.2747 62.6848 54.504 62.4451 54.6838Z" fill="white"/>
</g>
<defs>
<clipPath id="clip0_79_12310">
<rect width="56.6228" height="56.6228" fill="white" transform="translate(22.0488 21.3577)"/>
</clipPath>
</defs>
</svg>
