<svg width="90" height="90" viewBox="0 0 90 90" fill="none" xmlns="http://www.w3.org/2000/svg">
<path d="M79.1798 28.7816C75.7821 10.0844 58.153 -2.48263 39.3821 0.4153C22.5886 2.97886 9.91684 17.4407 9.61049 34.3267C9.58264 35.2462 9.83329 35.9986 10.3067 36.7509C17.6313 47.9526 24.928 59.1821 32.2525 70.3837C32.3361 70.4952 32.3918 70.6066 32.4753 70.7181C33.3665 70.0215 34.2856 69.3806 35.2882 68.8233C33.645 66.3154 32.0019 63.8076 30.3866 61.2998C24.7887 52.7174 19.1909 44.1072 13.5652 35.5249C13.036 34.7168 13.0082 34.0202 13.2588 33.1842C14.15 30.2027 17.1021 28.1407 20.0542 28.3915C23.4798 28.698 25.9584 31.2337 26.3205 34.7168C26.3762 35.2741 26.4876 35.8035 26.6547 36.333C30.4144 46.7544 34.202 57.1479 37.9896 67.5694C39.0479 67.1793 40.1619 66.8727 41.2759 66.6777C37.4883 56.2841 33.7007 45.8906 29.9688 35.4692C29.746 34.8004 29.8017 33.9366 29.9967 33.24C30.8322 30.147 33.9235 28.0293 36.9313 28.3915C40.4683 28.8374 42.9748 31.5124 43.0305 35.0512C43.0862 38.5064 43.0305 41.9338 43.0305 45.389C43.0305 52.4109 43.0305 59.405 43.0305 66.4269C43.5875 66.3712 44.1445 66.3433 44.7015 66.3433C45.2585 66.3433 45.8155 66.3712 46.3725 66.399C46.3725 56.0891 46.3725 45.7791 46.3725 35.4413C46.3725 31.6517 48.6283 29.0045 52.2767 28.3915C55.7858 27.8064 59.6569 31.0108 59.6569 34.5218C59.6569 34.8561 59.5177 35.1905 59.4063 35.5249C55.6465 45.8906 51.8868 56.2563 48.127 66.622C49.2689 66.817 50.355 67.1235 51.4133 67.5136C51.4969 67.2907 51.5804 67.0399 51.664 66.817C55.3123 56.73 58.9885 46.6708 62.6369 36.5838C62.9711 35.6642 63.0825 34.6332 63.2774 33.658C63.8623 30.5928 66.7587 28.2801 69.8779 28.3637C73.0806 28.4472 75.8656 30.8436 76.2834 33.9923C76.3391 34.3267 76.2555 34.7725 76.0606 35.0512C68.736 46.3086 61.4115 57.538 54.0869 68.7675C55.0895 69.3248 56.0364 69.9657 56.8998 70.6623C64.3079 59.3214 71.6881 47.9804 79.0684 36.6116C79.4861 35.9707 79.7646 35.0791 79.7089 34.2988C79.6811 32.5155 79.514 30.6207 79.1798 28.7816Z" fill="url(#paint0_linear_374_482)"/>
<path d="M60.579 61.4912H28.2158V88.9999H60.579V61.4912Z" fill="url(#paint1_linear_374_482)"/>
<path d="M38.0034 70.7574C38.094 72.4326 38.3882 74.0842 38.9541 75.665C39.7011 77.7413 40.765 79.6052 42.508 80.9265C43.0513 81.3512 43.6851 81.6343 44.2963 81.9646C44.4094 82.0118 44.5905 82.0118 44.7037 81.9646C46.2656 81.3748 47.4427 80.2894 48.3934 78.921C49.8195 76.8683 50.5891 74.556 50.8607 72.0551C50.9286 71.418 50.9513 70.781 50.9965 70.1439C51.0192 69.9552 50.9286 69.8844 50.7928 69.8136C48.7556 68.8934 46.7409 67.9733 44.7263 67.0531C44.5452 66.9823 44.4094 66.9823 44.251 67.0531C42.259 67.9733 40.2444 68.8698 38.2524 69.7664C38.0713 69.8608 37.9808 69.9552 38.0034 70.1675C38.0261 70.3799 38.0034 70.5686 38.0034 70.7574Z" fill="#F5F5F5"/>
<defs>
<linearGradient id="paint0_linear_374_482" x1="9.6084" y1="35.359" x2="79.716" y2="35.359" gradientUnits="userSpaceOnUse">
<stop stop-color="#FF9966"/>
<stop offset="1" stop-color="#FF8CA9"/>
</linearGradient>
<linearGradient id="paint1_linear_374_482" x1="28.2158" y1="75.2456" x2="60.579" y2="75.2456" gradientUnits="userSpaceOnUse">
<stop stop-color="#FF9966"/>
<stop offset="1" stop-color="#FF8CA9"/>
</linearGradient>
</defs>
</svg>
