<svg width="90" height="90" viewBox="0 0 90 90" fill="none" xmlns="http://www.w3.org/2000/svg">
<path d="M83.8632 49.2934C83.7809 48.0777 83.4791 46.8896 83.0127 45.7568C82.2993 43.9608 81.0647 42.6622 79.2264 42.1097C78.2113 41.8057 77.8546 41.1979 77.5802 40.2585C77.4156 39.6782 77.1961 39.1257 76.9767 38.5731C74.5897 40.6729 71.4619 41.9162 68.0598 41.9162C60.5423 41.9162 54.4514 35.7548 54.4514 28.212C54.4514 27.2449 54.5611 26.3055 54.7532 25.3661C54.0398 25.1727 53.4088 24.8688 52.8326 24.2333C52.7503 24.1504 52.5857 24.0951 52.476 24.0399C50.967 23.1834 49.2933 22.9623 47.5923 22.7689C46.9887 22.7137 46.7143 22.4097 46.6594 21.8019C46.5223 20.6414 46.3851 19.481 46.193 18.3205C46.1107 17.7679 46.2479 17.4917 46.7417 17.243C48.772 16.3036 49.7323 14.0656 49.0738 11.9381C48.4154 9.8935 46.4125 8.6778 44.1902 9.06461C42.4342 9.36854 41.035 10.8053 40.7606 12.5736C40.4863 14.5629 41.3368 16.3312 43.0927 17.1601C43.7237 17.464 43.9158 17.8232 43.7786 18.5139C43.5866 19.5915 43.4768 20.6967 43.3396 21.8019C43.2848 22.3821 43.0378 22.7137 42.4068 22.7689C41.7483 22.8242 41.0899 22.9347 40.4314 23.0452C38.8949 23.3215 37.4683 23.8188 36.2885 24.8964C35.8495 25.2832 35.3831 25.4214 34.8069 25.4766C30.7738 25.8911 26.7955 26.5818 23.0367 28.2396C19.7718 29.7039 16.9733 31.8038 14.9704 34.8707C13.7632 36.7219 12.8578 38.7388 12.2542 40.8663C12.0896 41.4189 11.8152 41.7228 11.2665 41.8886C8.68748 42.6346 7.20592 44.4858 6.62975 47.0277C5.8341 50.4814 5.8341 53.9628 6.49257 57.4441C6.95899 59.986 8.16619 62.0582 10.7452 62.9148C11.7329 63.2463 12.1719 63.7989 12.4737 64.7659C13.8181 69.1038 16.2051 72.668 20.0736 75.1547C23.7775 77.5585 27.9204 78.6084 32.2005 79.2439C36.4257 79.8794 40.7057 80.0175 45.5345 79.9899C46.8789 79.9622 48.772 79.9622 50.6652 79.8794C54.177 79.7136 57.634 79.4097 61.0635 78.6637C64.0267 78.0282 66.8526 77.0611 69.4316 75.5139C73.602 73.0272 76.2084 69.2972 77.6077 64.6831C77.882 63.8265 78.2662 63.274 79.1716 62.97C81.1744 62.3345 82.4365 60.9254 83.1224 58.9637C84.2199 55.8139 84.0827 52.5537 83.8632 49.2934ZM37.1939 57.3612C36.508 58.7703 35.3831 59.4334 33.8192 59.4887C32.1456 59.544 30.8012 59.0742 29.9781 57.4994C28.8807 55.3442 28.9355 53.0234 29.1276 50.7025C29.2099 49.6802 29.402 48.6579 29.8684 47.7461C30.6915 46.116 32.0358 45.5081 33.7918 45.5634C35.438 45.6186 36.5903 46.337 37.2488 47.8566C37.8798 49.3486 38.1267 50.9235 38.017 52.4708C38.1267 54.2391 37.9347 55.8416 37.1939 57.3612ZM60.3776 56.7257C59.6643 58.7703 58.3473 59.5716 56.0976 59.4611C54.2593 59.3782 52.9972 58.3006 52.4485 56.3389C52.0918 55.068 51.9272 53.7694 52.0095 52.4708C51.9272 50.7025 52.1742 49.0723 52.9424 47.4698C54.0947 45.0108 58.4571 44.8726 59.8289 47.1659C60.4599 48.2158 60.7617 49.321 60.8989 50.5367C61.0635 52.6365 61.0635 54.7088 60.3776 56.7257Z" fill="url(#paint0_linear_374_3481)"/>
<path d="M68.5008 16.9932C63.0339 16.9932 58.4504 20.8311 57.2908 25.9668C57.0975 26.7675 57.0146 27.6234 57.0146 28.507C57.0146 34.8575 62.1779 39.9932 68.5008 39.9932C71.5933 39.9932 74.4372 38.7507 76.508 36.7351C78.6617 34.6366 80.0146 31.7099 80.0146 28.4794C80.0146 22.1564 74.8514 16.9932 68.5008 16.9932ZM75.1551 33.5598L74.7133 34.0016L74.3544 34.3605L73.5813 35.1336L68.5008 30.0532L63.4204 35.1336L62.6473 34.3605L61.8742 33.5874L66.9546 28.507L61.8742 23.4265L63.448 21.8527L68.5285 26.9331L73.6089 21.8527L74.382 22.6258L75.1551 23.3989L70.0747 28.4794L75.1551 33.5598Z" fill="url(#paint1_linear_374_3481)"/>
<defs>
<linearGradient id="paint0_linear_374_3481" x1="6.01465" y1="44.4932" x2="84.0146" y2="44.4932" gradientUnits="userSpaceOnUse">
<stop stop-color="#FF9966"/>
<stop offset="1" stop-color="#FF8CA9"/>
</linearGradient>
<linearGradient id="paint1_linear_374_3481" x1="57.0146" y1="28.4932" x2="80.0146" y2="28.4932" gradientUnits="userSpaceOnUse">
<stop stop-color="#FF9966"/>
<stop offset="1" stop-color="#FF8CA9"/>
</linearGradient>
</defs>
</svg>
