<svg width="28" height="30" viewBox="0 0 28 30" fill="none" xmlns="http://www.w3.org/2000/svg">
<g clip-path="url(#clip0_0_42)">
<path fill-rule="evenodd" clip-rule="evenodd" d="M15.5826 5.681C15.5826 6.48248 15.4139 6.9438 15.141 7.20502L22.6958 9.62045C22.9028 9.42932 23.1721 9.31283 23.4673 9.31283C24.1193 9.31283 24.6479 9.87699 24.6479 10.5729C24.6479 11.0788 24.368 11.5138 23.9651 11.7144L26.6089 19.8635C27.446 20.0063 27.9992 20.2169 27.9992 20.4952C27.9992 21.6385 25.9098 22.5653 23.3325 22.5653C20.7552 22.5653 18.6659 21.6385 18.6659 20.4952C18.6659 20.199 19.2926 19.9795 20.2211 19.8368L22.8737 11.6608C22.6302 11.5092 22.4425 11.2676 22.3503 10.9782C22.2613 10.5816 22.054 10.3313 21.7284 10.2272C21.3394 10.1028 20.9583 10.0888 20.5328 10.0731C19.9951 10.0532 19.3866 10.0307 18.6016 9.77977L14.7637 8.55278V16.9339C15.0626 17.1624 15.2579 17.5354 15.2579 17.9578C15.2579 18.238 15.1713 18.496 15.0263 18.7052C15.4162 19.015 15.6698 19.5092 15.6698 20.0678C15.6698 20.7439 15.2991 21.326 14.7637 21.5998V23.3497C16.5063 23.4472 17.8339 23.9505 17.8339 24.5568C17.8339 24.5671 17.8335 24.5773 17.8327 24.5874C20.6461 24.8473 22.5887 25.4006 22.5887 26.0413L22.6024 26.9352C22.6024 27.8253 18.86 28.5396 14.2351 28.5396C9.61017 28.5396 5.86783 27.8106 5.86783 26.9205L5.8404 26.0413C5.8404 25.4108 7.72095 24.8651 10.4612 24.6002C10.4597 24.5858 10.4589 24.5714 10.4589 24.5568C10.4589 23.9602 11.7443 23.4633 13.4458 23.3547V21.628C12.8806 21.367 12.4848 20.7671 12.4848 20.0679C12.4848 19.5094 12.7385 19.0151 13.1283 18.7053C12.9834 18.4961 12.8967 18.2382 12.8967 17.9579C12.8967 17.5102 13.1161 17.118 13.4458 16.8945V8.13148L9.06882 6.73204C8.77755 6.63891 8.35117 6.39159 7.89559 6.12733C7.37301 5.8242 6.812 5.49879 6.37239 5.35823C6.06778 5.26084 5.75512 5.33143 5.4344 5.57001C5.37262 5.6239 5.30549 5.67076 5.23425 5.71059L7.87226 13.842C8.74873 13.9849 9.33324 14.1994 9.33324 14.4855C9.33324 15.6288 7.24392 16.5556 4.66662 16.5556C2.08932 16.5556 0 15.6288 0 14.4855C0 14.2077 0.551099 13.9974 1.38547 13.8546L4.04665 5.65186C3.72204 5.42732 3.50673 5.03802 3.50673 4.59439C3.50673 3.89843 4.03529 3.33427 4.68732 3.33427C5.21851 3.33427 5.66751 3.70871 5.81585 4.22373L12.598 6.39205C12.5608 6.19137 12.541 5.95624 12.541 5.681C12.541 4.60738 13.0479 3.33861 14.0618 1.87469C15.0757 3.33861 15.5826 4.60738 15.5826 5.681ZM23.7316 11.8001L26.3336 19.8204C24.6924 19.5846 22.1911 19.5772 20.4954 19.798L23.0999 11.7699C23.2157 11.8103 23.3391 11.8329 23.4675 11.8329C23.5584 11.8329 23.6465 11.8208 23.7316 11.8001ZM1.66091 13.8113L4.26921 5.77169C4.39936 5.82435 4.53988 5.85451 4.68732 5.85451C4.79711 5.85451 4.90296 5.83728 5.00378 5.80738L7.59708 13.8007C5.89933 13.567 3.33238 13.5705 1.66091 13.8113Z" fill="#BE75FF"/>
</g>
<defs>
<clipPath id="clip0_0_42">
<rect width="27.8586" height="29.8485" fill="white" transform="scale(1.00507)"/>
</clipPath>
</defs>
</svg>
