<svg width="47" height="73" viewBox="0 0 47 73" fill="none" xmlns="http://www.w3.org/2000/svg">
<path fill-rule="evenodd" clip-rule="evenodd" d="M45.65 1.58938L36.7725 0.416882C36.2277 0.344934 35.7278 0.728225 35.6558 1.27299C35.5839 1.81775 35.9672 2.3177 36.512 2.38965L43.5508 3.31931L44.2905 4.28406L43.3608 11.3229C43.2889 11.8677 43.6721 12.3676 44.2169 12.4396C44.7617 12.5115 45.2616 12.1283 45.3336 11.5835L46.5061 2.70604C46.578 2.16127 46.1947 1.66133 45.65 1.58938ZM2.70667 36.6528L2.95134 36.4652L1.74063 34.886L0.141602 36.1119L0.556261 36.6528L0.141602 37.1936L1.74063 38.4196L2.95134 36.8404L2.70667 36.6528ZM6.1494 34.0134L9.34745 31.5615L8.13673 29.9823L4.93868 32.4342L6.1494 34.0134ZM12.5455 29.1097L15.7436 26.6578L14.5328 25.0786L11.3348 27.5305L12.5455 29.1097ZM18.9416 24.206L22.1397 21.7542L20.9289 20.175L17.7309 22.6268L18.9416 24.206ZM25.3377 19.3023L28.5358 16.8505L27.325 15.2713L24.127 17.7231L25.3377 19.3023ZM31.7338 14.3986L34.9319 11.9468L33.7211 10.3676L30.5231 12.8194L31.7338 14.3986ZM38.1299 9.49496L41.328 7.04312L40.1172 5.46392L36.9192 7.91576L38.1299 9.49496ZM45.65 71.7162L36.7725 72.8887C36.2277 72.9606 35.7278 72.5773 35.6558 72.0326C35.5839 71.4878 35.9672 70.9879 36.512 70.9159L43.5508 69.9862L44.2905 69.0215L43.3608 61.9826C43.2889 61.4379 43.6721 60.9379 44.2169 60.866C44.7617 60.794 45.2616 61.1773 45.3336 61.7221L46.5061 70.5995C46.578 71.1443 46.1947 71.6442 45.65 71.7162ZM6.1494 39.2922L9.34745 41.744L8.13673 43.3232L4.93868 40.8714L6.1494 39.2922ZM12.5455 44.1959L15.7436 46.6477L14.5328 48.2269L11.3348 45.7751L12.5455 44.1959ZM18.9416 49.0996L22.1397 51.5514L20.9289 53.1306L17.7309 50.6788L18.9416 49.0996ZM25.3377 54.0032L28.5358 56.4551L27.325 58.0343L24.127 55.5824L25.3377 54.0032ZM31.7338 58.9069L34.9319 61.3587L33.7211 62.9379L30.5231 60.4861L31.7338 58.9069ZM38.1299 63.8106L41.328 66.2624L40.1172 67.8416L36.9192 65.3898L38.1299 63.8106Z" fill="#333333"/>
</svg>
