<svg width="24" height="25" viewBox="0 0 24 25" fill="none" xmlns="http://www.w3.org/2000/svg">
<g clip-path="url(#clip0_58_2486)">
<path fill-rule="evenodd" clip-rule="evenodd" d="M3 1.5L21 1.5C22.1046 1.5 23 2.39543 23 3.5L23 21.5C23 22.6046 22.1046 23.5 21 23.5L3 23.5C1.89543 23.5 1 22.6046 1 21.5L1 3.5C1 2.39543 1.89543 1.5 3 1.5ZM0 3.5C0 1.84315 1.34315 0.5 3 0.5L21 0.5C22.6569 0.5 24 1.84315 24 3.5L24 21.5C24 23.1569 22.6569 24.5 21 24.5L3 24.5C1.34315 24.5 0 23.1569 0 21.5L0 3.5ZM5.84908 6.5458L5.84209 7.82462C5.83621 8.37475 6.28608 8.81296 6.83639 8.79555L13.6158 8.59435L5.29115 16.9173C4.90591 17.3025 4.90254 17.9189 5.2836 18.2998L6.20041 19.2165C6.58147 19.5974 7.19796 19.5941 7.5832 19.2089L15.9079 10.8859L15.7066 17.664C15.6921 18.2113 16.1304 18.6611 16.6777 18.6581L17.9568 18.6511C18.4955 18.651 18.9358 18.2108 18.9387 17.6694L18.9999 6.47107C19.0058 5.93246 18.5703 5.49706 18.0287 5.50001L6.83101 5.56407C6.29232 5.56413 5.85204 6.00432 5.84908 6.5458Z" fill="#FF9966"/>
</g>
<defs>
<clipPath id="clip0_58_2486">
<rect width="24" height="24" fill="white" transform="translate(0 0.5)"/>
</clipPath>
</defs>
</svg>
