<svg width="25" height="25" viewBox="0 0 25 25" fill="none" xmlns="http://www.w3.org/2000/svg">
<g clip-path="url(#clip0_84_4131)">
<path fill-rule="evenodd" clip-rule="evenodd" d="M3.5 1.95898L21.5 1.95898C22.6046 1.95898 23.5 2.85441 23.5 3.95898L23.5 21.959C23.5 23.0636 22.6046 23.959 21.5 23.959L3.5 23.959C2.39543 23.959 1.5 23.0636 1.5 21.959L1.5 3.95898C1.5 2.85441 2.39543 1.95898 3.5 1.95898ZM0.5 3.95898C0.5 2.30213 1.84315 0.958984 3.5 0.958984L21.5 0.958984C23.1569 0.958984 24.5 2.30213 24.5 3.95898L24.5 21.959C24.5 23.6158 23.1569 24.959 21.5 24.959L3.5 24.959C1.84315 24.959 0.5 23.6158 0.5 21.959L0.5 3.95898ZM6.34908 7.00479L6.34209 8.2836C6.33621 8.83374 6.78608 9.27194 7.33639 9.25453L14.1158 9.05333L5.79115 17.3763C5.40591 17.7615 5.40254 18.3778 5.7836 18.7588L6.70041 19.6754C7.08147 20.0564 7.69796 20.0531 8.0832 19.6679L16.4079 11.3449L16.2066 18.123C16.1921 18.6703 16.6304 19.1201 17.1777 19.1171L18.4568 19.1101C18.9955 19.11 19.4358 18.6698 19.4387 18.1283L19.4999 6.93006C19.5058 6.39144 19.0703 5.95604 18.5287 5.959L7.33101 6.02306C6.79232 6.02312 6.35204 6.4633 6.34908 7.00479Z" fill="#FF9966"/>
</g>
<defs>
<clipPath id="clip0_84_4131">
<rect width="24" height="24" fill="white" transform="translate(0.5 0.958984)"/>
</clipPath>
</defs>
</svg>
