<svg width="1440" height="96" viewBox="0 0 1440 96" fill="none" xmlns="http://www.w3.org/2000/svg">
<rect y="0.458984" width="1440" height="96" fill="white"/>
<path fill-rule="evenodd" clip-rule="evenodd" d="M722.546 38.2072L709.068 37.6055L701.211 47.4194L706.766 60.5746L720.318 61.4304L728.021 50.3462L722.546 38.2072ZM709.194 48.8721L718.966 44.6034L717.547 55.3406L709.194 48.8721ZM710.027 39.094L717.834 42.4566L708.389 46.1746L710.027 39.094ZM707.375 50.899L715.855 56.9682L707.581 59.128L707.375 50.899ZM720.881 44.4457L726.664 50.3042L719.346 55.7406L720.881 44.4457ZM710.687 60.1601L717.84 58.2729L719.104 60.7019L710.687 60.1601ZM719.269 57.656L725.535 52.9907L720.516 60.0919L719.269 57.656ZM721.346 42.4057L722.574 39.9037L725.877 47.009L721.346 42.4057ZM713.089 38.3842L721.038 38.7064L719.65 41.2538L713.089 38.3842ZM702.349 46.9051L707.917 39.861L706.074 47.6955L702.349 46.9051ZM702.104 48.2745L705.849 49.0663L705.998 57.4901L702.104 48.2745ZM667.183 54.4595H666.048V43.8228H667.183V54.4595ZM662.507 54.4595H663.642V46.9673H662.507V54.4595ZM662.603 44.3696C662.475 44.4881 662.411 44.6772 662.411 44.937C662.411 45.1922 662.475 45.3836 662.603 45.5112C662.73 45.6343 662.89 45.6958 663.081 45.6958C663.263 45.6958 663.421 45.6343 663.553 45.5112C663.685 45.3836 663.751 45.1922 663.751 44.937C663.751 44.6818 663.685 44.4927 663.553 44.3696C663.421 44.2466 663.263 44.1851 663.081 44.1851C662.89 44.1851 662.73 44.2466 662.603 44.3696ZM645 44.4653H647.823C649.149 44.4653 650.109 44.6636 650.701 45.0601C651.294 45.4565 651.59 46.0832 651.59 46.9399C651.59 47.5324 651.424 48.0223 651.091 48.4097C650.763 48.7925 650.282 49.0409 649.648 49.1548V49.2231C651.166 49.4829 651.925 50.2804 651.925 51.6157C651.925 52.509 651.622 53.2062 651.016 53.7075C650.414 54.2088 649.571 54.4595 648.486 54.4595H645V44.4653ZM646.162 48.7446H648.076C648.896 48.7446 649.487 48.617 649.847 48.3618C650.207 48.1021 650.387 47.6668 650.387 47.0562C650.387 46.4956 650.186 46.0923 649.785 45.8462C649.384 45.5955 648.746 45.4702 647.871 45.4702H646.162V48.7446ZM646.162 49.729V53.4683H648.247C649.054 53.4683 649.66 53.3133 650.065 53.0034C650.476 52.689 650.681 52.1991 650.681 51.5337C650.681 50.9139 650.471 50.4582 650.052 50.1665C649.637 49.8748 649.004 49.729 648.151 49.729H646.162ZM654.974 46.9673V51.8276C654.974 52.4383 655.113 52.894 655.391 53.1948C655.669 53.4956 656.104 53.646 656.696 53.646C657.48 53.646 658.052 53.4318 658.412 53.0034C658.777 52.575 658.959 51.8755 658.959 50.9048V46.9673H660.094V54.4595H659.157L658.993 53.4546H658.932C658.699 53.8237 658.376 54.1063 657.961 54.3022C657.551 54.4982 657.081 54.5962 656.553 54.5962C655.641 54.5962 654.958 54.3797 654.502 53.9468C654.051 53.5138 653.825 52.8211 653.825 51.8687V46.9673H654.974ZM672.59 53.6187C672.403 53.646 672.209 53.6597 672.009 53.6597C671.635 53.6597 671.341 53.5389 671.127 53.2974C670.913 53.0558 670.806 52.7095 670.806 52.2583V47.8491H672.979V46.9673H670.806V45.231H670.149L669.671 46.8306L668.598 47.3022V47.8491H669.671V52.3062C669.671 53.8328 670.396 54.5962 671.845 54.5962C672.036 54.5962 672.25 54.5757 672.487 54.5347C672.729 54.4982 672.911 54.4504 673.034 54.3911V53.5229C672.925 53.5548 672.777 53.5868 672.59 53.6187ZM681.661 46.8442C682.646 46.8442 683.409 47.1815 683.951 47.856C684.498 48.5259 684.771 49.4761 684.771 50.7065C684.771 51.937 684.496 52.894 683.944 53.5776C683.397 54.2567 682.636 54.5962 681.661 54.5962C681.174 54.5962 680.727 54.5073 680.321 54.3296C679.92 54.1473 679.583 53.8693 679.31 53.4956H679.228L678.988 54.4595H678.175V43.8228H679.31V46.4067C679.31 46.9855 679.291 47.505 679.255 47.9653H679.31C679.838 47.2179 680.622 46.8442 681.661 46.8442ZM681.497 47.7944C680.722 47.7944 680.164 48.0177 679.822 48.4644C679.48 48.9064 679.31 49.6538 679.31 50.7065C679.31 51.7593 679.485 52.5135 679.836 52.9692C680.187 53.4204 680.75 53.646 681.524 53.646C682.222 53.646 682.741 53.3931 683.083 52.8872C683.425 52.3768 683.596 51.6453 683.596 50.6929C683.596 49.7176 683.425 48.9907 683.083 48.5122C682.741 48.0337 682.213 47.7944 681.497 47.7944ZM686.788 46.9673H685.571L688.593 54.5005L688.176 55.5669C687.843 56.4419 687.287 56.8794 686.508 56.8794C686.198 56.8794 685.918 56.8521 685.667 56.7974V57.7065C686.004 57.784 686.346 57.8228 686.692 57.8228C687.312 57.8228 687.834 57.645 688.258 57.2896C688.686 56.9386 689.06 56.3416 689.379 55.4985L692.599 46.9673H691.382C690.334 49.8657 689.714 51.5975 689.522 52.1626C689.336 52.7231 689.213 53.1196 689.153 53.3521H689.099C689.012 52.9191 688.789 52.215 688.429 51.2397L686.788 46.9673ZM735.496 48.826H735.053V44.8395H733.853V54.197H735.053V49.814H735.461L739.234 54.4269L740.151 53.6592L736.519 49.259L739.613 45.3249L738.702 44.6089L735.496 48.826ZM745.921 44.8398H744.728V54.1966H750.806V53.1198H745.921V44.8398ZM755.226 44.8398H761.039V45.9222H756.426V48.7223H760.237V49.7964H756.428V53.1198H761.041V54.1966H755.226V44.8398ZM768.978 44.8398H765.811L765.845 54.1959H767.028V50.1916H768.761L771.127 54.4265L772.16 53.7993L769.871 50.0126C770.421 49.8273 770.899 49.4745 771.239 49.0037C771.578 48.5329 771.762 47.9677 771.764 47.3873C771.764 45.5793 770.534 44.8398 768.978 44.8398ZM770.516 47.3894C770.516 48.4476 769.765 49.1161 768.582 49.1161H767.013V45.9229H768.946C769.033 45.9113 769.121 45.9083 769.208 45.9139C769.577 45.9362 769.922 46.1042 770.168 46.3809C770.413 46.6575 770.538 47.0203 770.516 47.3894ZM782.584 49.5298C782.584 50.2809 782.531 54.3555 779.279 54.3555C777.771 54.3555 775.967 53.2794 775.967 49.5298C775.967 45.7802 777.742 44.6807 779.279 44.6807C780.816 44.6807 782.584 45.7568 782.584 49.5298ZM777.22 49.5298C777.22 50.8896 777.468 53.2257 779.278 53.2257C781.087 53.2257 781.33 50.86 781.33 49.5298C781.33 48.1996 781.082 45.8119 779.278 45.8119C777.473 45.8119 777.19 48.1493 777.19 49.5298H777.22ZM790.065 53.2299C788.811 53.2299 788.261 52.381 788.024 51.2332L786.963 51.583C787.247 53.2499 788.353 54.3625 790.074 54.3625C791.795 54.3625 793.035 53.3573 793.035 51.583C793.051 51.1324 792.938 50.6865 792.71 50.2977C792.482 49.909 792.147 49.5936 791.745 49.3887L789.764 48.5137C789.048 48.1887 788.511 47.9016 788.511 47.0589C788.511 46.2161 789.263 45.8196 790.031 45.8196C791.048 45.8196 791.532 46.4702 791.745 47.3811L792.892 47.0437C792.514 45.5738 791.603 44.6787 790.048 44.6787C788.581 44.6787 787.31 45.5593 787.31 47.1387C787.31 48.7186 788.35 49.1564 789.548 49.6604L789.548 49.6605C789.684 49.7174 789.821 49.7752 789.959 49.8356C789.984 49.8458 790.009 49.856 790.033 49.8661C790.087 49.888 790.14 49.9097 790.194 49.9313C791.028 50.2686 791.839 50.5961 791.839 51.6505C791.839 52.6929 791.047 53.2299 790.065 53.2299Z" fill="#999999"/>
<path fill-rule="evenodd" clip-rule="evenodd" d="M170.671 25.9545L143.714 24.751L128 44.3788L139.111 70.6891L166.216 72.4008L181.62 50.2324L170.671 25.9545ZM143.968 47.2842L163.512 38.7468L160.672 60.2212L143.968 47.2842ZM145.633 27.7281L161.248 34.4533L142.357 41.8891L145.633 27.7281ZM140.328 51.3381L157.289 63.4764L140.741 67.7961L140.328 51.3381ZM167.341 38.4315L178.908 50.1484L164.27 61.0212L167.341 38.4315ZM146.953 69.8602L161.259 66.0858L163.787 70.9439L146.953 69.8602ZM164.117 64.852L176.648 55.5215L166.611 69.7239L164.117 64.852ZM168.272 34.3514L170.727 29.3474L177.334 43.5581L168.272 34.3514ZM151.757 26.3084L167.655 26.9528L164.879 32.0477L151.757 26.3084ZM130.276 43.3501L141.412 29.262L137.727 44.9309L130.276 43.3501ZM129.787 46.089L137.277 47.6726L137.574 64.5202L129.787 46.089ZM195.684 47.192H196.571L202.982 38.7578L204.804 40.1899L198.617 48.0581L205.881 56.8585L204.047 58.3939L196.501 49.168H195.684V57.9339H193.284V39.2191H195.684V47.192ZM215.035 39.2197H217.422V55.7796H227.191V57.9332H215.035V39.2197ZM247.658 39.2197H236.03V57.9332H247.66V55.7796H238.435V49.1328H246.052V46.9846H238.432V41.3844H247.658V39.2197ZM257.201 39.2197H263.535C266.646 39.2197 269.107 40.6986 269.107 44.3146C269.103 45.4754 268.736 46.6059 268.057 47.5475C267.378 48.4891 266.421 49.1946 265.321 49.5651L269.899 57.1387L267.833 58.3931L263.102 49.9232H259.634V57.9318H257.269L257.201 39.2197ZM262.744 47.7723C265.109 47.7723 266.612 46.4352 266.612 44.3188C266.656 43.5806 266.405 42.8551 265.914 42.3018C265.424 41.7484 264.733 41.4125 263.995 41.3679C263.82 41.3566 263.645 41.3626 263.471 41.3857H259.604V47.7723H262.744ZM284.137 58.251C290.641 58.251 290.747 50.1019 290.747 48.5996C290.747 41.0536 287.212 38.9014 284.137 38.9014C281.062 38.9014 277.514 41.1004 277.514 48.5996C277.514 56.0987 281.121 58.251 284.137 58.251ZM284.134 55.9913C280.516 55.9913 280.018 51.3192 280.018 48.5996H279.959C279.959 45.8387 280.525 41.1638 284.134 41.1638C287.743 41.1638 288.239 45.9392 288.239 48.5996C288.239 51.26 287.753 55.9913 284.134 55.9913ZM301.628 52.0065C302.102 54.302 303.202 55.9998 305.709 55.9998C307.673 55.9998 309.256 54.9258 309.256 52.841C309.256 50.7322 307.636 50.0772 305.967 49.4027C305.81 49.3394 305.653 49.276 305.497 49.2112C305.221 49.0904 304.946 48.9748 304.675 48.8609C302.279 47.8528 300.199 46.9773 300.199 43.8175C300.199 40.6586 302.74 38.8975 305.675 38.8975C308.785 38.8975 310.607 40.6876 311.363 43.6275L309.069 44.3022C308.644 42.4804 307.674 41.1792 305.64 41.1792C304.105 41.1792 302.6 41.9723 302.6 43.6578C302.6 45.3432 303.674 45.9174 305.108 46.5674L309.069 48.3175C309.872 48.7273 310.542 49.358 310.999 50.1355C311.456 50.913 311.681 51.8048 311.648 52.706C311.648 56.2546 309.17 58.265 305.727 58.265C302.285 58.265 300.073 56.0398 299.506 52.706L301.628 52.0065Z" fill="white"/>
</svg>
