<svg width="134" height="48" viewBox="0 0 134 48" fill="none" xmlns="http://www.w3.org/2000/svg">
<g clip-path="url(#clip0_374_3604)">
<path d="M52.7722 15.2623V20.0404H51.0596V8.24062H53.0976C53.8494 8.21783 54.6014 8.27524 55.3411 8.41188C55.8456 8.56402 56.3125 8.82078 56.7112 9.16543C57.0246 9.49922 57.268 9.89248 57.4268 10.322C57.5856 10.7514 57.6568 11.2084 57.636 11.6658C57.6577 12.1438 57.5703 12.6204 57.3804 13.0596C57.1904 13.4988 56.903 13.8889 56.5399 14.2005C55.6933 14.8475 54.6401 15.1641 53.5771 15.091L52.7037 15.1938L52.7722 15.2623ZM52.7722 13.5497H53.4401C55.1527 13.5497 55.9062 12.9503 55.9062 11.7001C55.9062 10.4499 54.9643 9.95322 53.3202 9.95322H52.7037V13.6182L52.7722 13.5497ZM63.356 14.9198L66.9182 19.9205H64.709L61.2838 15.1424H60.9584V19.9205H59.2458V8.24062H61.2838C62.4622 8.16194 63.6343 8.46849 64.6234 9.11405C64.9978 9.42747 65.2925 9.82537 65.483 10.275C65.6736 10.7246 65.7546 11.213 65.7194 11.7001C65.7247 12.4686 65.4713 13.2166 65.0001 13.8237C64.8103 14.1253 64.5602 14.3845 64.2655 14.5849C63.9708 14.7853 63.6378 14.9226 63.2875 14.9883L63.356 14.9198ZM61.2153 13.6182H61.7633C63.4759 13.6182 64.2295 13.0016 64.2295 11.7001C64.2295 10.3985 63.3389 9.95322 61.7462 9.95322H61.1468L61.2153 13.6182ZM67.9115 13.9436C67.902 13.1688 68.0505 12.4002 68.3479 11.6847C68.6453 10.9691 69.0854 10.3217 69.6413 9.78196C70.2154 9.22564 70.8937 8.78802 71.6371 8.49415C72.3806 8.20027 73.1748 8.05593 73.9741 8.06936C74.7741 8.06258 75.5669 8.22021 76.3034 8.53248C77.0399 8.84476 77.7044 9.30502 78.2556 9.88472C78.8309 10.4349 79.2873 11.0971 79.5966 11.8306C79.9059 12.564 80.0615 13.3531 80.0539 14.1491C80.0598 14.9473 79.9035 15.7385 79.5944 16.4745C79.2853 17.2105 78.8298 17.876 78.2556 18.4306C77.6815 18.9869 77.0033 19.4245 76.2598 19.7184C75.5163 20.0123 74.7221 20.1566 73.9228 20.1432C72.442 20.1616 71.0095 19.6168 69.9153 18.619C69.2412 18.0601 68.704 17.3544 68.3448 16.5559C67.9857 15.7573 67.814 14.8872 67.843 14.0121L67.9115 13.9436ZM69.6241 14.0463C69.6082 14.6477 69.7171 15.2459 69.9441 15.803C70.1711 16.3601 70.5112 16.8641 70.9428 17.2831C71.7267 18.0768 72.7903 18.5318 73.9056 18.5505C74.4763 18.5617 75.0432 18.455 75.5707 18.2369C76.0983 18.0188 76.575 17.6941 76.9712 17.2831C77.3788 16.8738 77.7008 16.3873 77.9184 15.8522C78.136 15.317 78.2448 14.7439 78.2385 14.1662C78.2521 13.585 78.1466 13.0072 77.9287 12.4682C77.7107 11.9293 77.3849 11.4406 76.9712 11.0322C76.5781 10.6183 76.1015 10.2928 75.5729 10.0772C75.0444 9.8617 74.476 9.76104 73.9056 9.78196C73.3364 9.77054 72.7709 9.87554 72.2438 10.0905C71.7166 10.3055 71.239 10.6259 70.8401 11.0322C70.4275 11.4299 70.1031 11.9097 69.8877 12.4408C69.6723 12.9718 69.5709 13.5421 69.5899 14.1148L69.6241 14.0463ZM81.7493 13.9436C81.7282 13.1586 81.8694 12.3776 82.1641 11.6497C82.4588 10.9218 82.9006 10.2626 83.4619 9.71346C84.0361 9.15714 84.7143 8.71951 85.4578 8.42564C86.2013 8.13177 86.9955 7.98742 87.7948 8.00086C88.5948 7.99407 89.3876 8.1517 90.1241 8.46398C90.8606 8.77625 91.525 9.23651 92.0763 9.81621C92.6516 10.3664 93.108 11.0286 93.4173 11.7621C93.7266 12.4955 93.8822 13.2846 93.8745 14.0806C93.8805 14.8788 93.7242 15.67 93.4151 16.406C93.106 17.142 92.6505 17.8075 92.0763 18.3621C90.963 19.5213 89.4359 20.1924 87.8291 20.2288C86.2105 20.2198 84.6616 19.5693 83.5219 18.4199C82.3822 17.2706 81.7448 15.7163 81.7493 14.0977V13.9436ZM83.4619 14.0463C83.446 14.6477 83.5549 15.2459 83.7819 15.803C84.0089 16.3601 84.349 16.8641 84.7806 17.2831C85.5645 18.0768 86.6281 18.5318 87.7434 18.5505C88.3141 18.5617 88.881 18.455 89.4085 18.2369C89.9361 18.0188 90.4128 17.6941 90.809 17.2831C91.6197 16.4492 92.0689 15.3292 92.0592 14.1662C92.075 13.5862 91.9722 13.0092 91.7573 12.4703C91.5423 11.9314 91.2196 11.442 90.809 11.0322C90.4276 10.6266 89.9652 10.3058 89.4519 10.0904C88.9385 9.87505 88.3856 9.76996 87.8291 9.78196C87.2588 9.77376 86.6928 9.88192 86.1657 10.0998C85.6387 10.3177 85.1615 10.6408 84.7635 11.0493C84.3464 11.4425 84.0153 11.9179 83.7913 12.4456C83.5672 12.9732 83.4551 13.5416 83.4619 14.1148V14.0463ZM101.941 9.95322H97.882V12.7448H101.821V14.4574H97.882V20.0062H96.1694V8.24062H101.992V9.95322H101.941ZM108.175 14.0121C108.168 13.2197 108.326 12.4345 108.638 11.7064C108.951 10.9782 109.411 10.3229 109.99 9.78196C110.564 9.22487 111.242 8.78675 111.985 8.49283C112.729 8.1989 113.523 8.05499 114.323 8.06936C115.129 8.05107 115.93 8.19987 116.676 8.50641C117.422 8.81295 118.096 9.27057 118.656 9.85047C119.216 10.4079 119.656 11.0734 119.951 11.8066C120.245 12.5397 120.387 13.325 120.368 14.1148C120.386 14.907 120.243 15.6944 119.948 16.4301C119.654 17.1658 119.215 17.8345 118.656 18.3963C118.082 18.9527 117.403 19.3903 116.66 19.6841C115.916 19.978 115.122 20.1224 114.323 20.1089C112.841 20.1325 111.407 19.587 110.315 18.5847C109.635 18.0354 109.088 17.3381 108.717 16.5457C108.346 15.7534 108.16 14.8869 108.175 14.0121ZM109.887 14.1148C109.864 15.2781 110.301 16.4035 111.102 17.2468C111.904 18.09 113.006 18.5831 114.169 18.619C114.74 18.6302 115.306 18.5235 115.834 18.3054C116.361 18.0873 116.838 17.7626 117.234 17.3516C117.64 16.9414 117.959 16.4545 118.174 15.9192C118.388 15.384 118.494 14.8113 118.485 14.2347C118.5 13.6548 118.398 13.0777 118.183 12.5388C117.968 11.9999 117.645 11.5105 117.234 11.1007C116.841 10.6868 116.365 10.3613 115.836 10.1458C115.308 9.9302 114.739 9.82955 114.169 9.85047C113.597 9.83971 113.029 9.94494 112.499 10.1598C111.97 10.3747 111.489 10.6948 111.086 11.1007C110.701 11.4992 110.4 11.9718 110.203 12.49C110.006 13.0081 109.916 13.5609 109.939 14.1148H109.887ZM128.349 9.95322H124.29V12.7448H128.246V14.4574H124.29V20.0062H122.578V8.24062H128.418V9.95322H128.349ZM52.7722 32.9705H57.8072V28.4322H59.5198V40.095H57.8072V34.6146H52.7722V40.0436H51.0596V28.3637H52.7722V32.9705ZM64.161 28.4322V35.5052C64.106 36.2689 64.2789 37.0318 64.6576 37.6973C64.8898 38.0161 65.1977 38.2723 65.5534 38.4426C65.9091 38.613 66.3016 38.6924 66.6956 38.6735C67.0942 38.6906 67.491 38.6106 67.8519 38.4406C68.2129 38.2706 68.5272 38.0155 68.7678 37.6973C69.1466 37.0318 69.3194 36.2689 69.2645 35.5052V28.4322H70.9771V35.9847C70.9995 36.5489 70.9095 37.112 70.7126 37.6411C70.5156 38.1703 70.2155 38.6551 69.8297 39.0674C69.423 39.4999 68.9321 39.8445 68.3872 40.0802C67.8423 40.3158 67.255 40.4374 66.6613 40.4375C66.069 40.4455 65.4817 40.3275 64.9384 40.0913C64.3951 39.8551 63.9083 39.5061 63.5102 39.0674C63.1243 38.6551 62.8242 38.1703 62.6273 37.6411C62.4303 37.112 62.3404 36.5489 62.3627 35.9847V28.4322H64.161ZM73.4261 40.095L75.8409 27.5416L79.8484 36.6526L84.01 27.5416L86.2021 40.095H84.4039L83.3078 33.0219L79.8826 40.643L76.543 33.0219L75.2757 40.095H73.4261ZM95.5186 37.252H90.4836L89.1649 40.0436H87.2468L93.0525 27.7129L98.6527 40.0436H96.7346L95.5186 37.252ZM94.8679 35.5394L93.1553 31.532L91.2543 35.6422L94.8679 35.5394ZM100.006 39.9751V27.4731L108.569 36.3615V28.3123H110.281V40.78L101.718 31.8916V40.0607H100.006V39.9751ZM114.905 28.3637V40.095H113.193V28.4322L114.905 28.3637ZM120.882 30.0763V40.095H119.17V30.0763H116.515V28.3637H123.64V30.0763H120.882ZM128.281 35.0599L124.444 28.4322H126.482L129.171 33.0904L131.843 28.4322H133.881L130.045 35.0599V40.095H128.298V35.0599H128.281Z" fill="url(#paint0_linear_374_3604)"/>
<path d="M41.9538 26.715C42.1334 26.961 42.2865 27.2253 42.4104 27.5035C42.5394 27.725 42.5929 27.9823 42.563 28.2368C42.533 28.4912 42.4212 28.7291 42.2444 28.9146C41.9123 29.1013 41.5178 29.2466 41.1857 29.4334L40.3762 29.8276C40.2418 29.8862 40.1224 29.9744 40.0268 30.0855C39.9312 30.1966 39.8619 30.3278 39.824 30.4693C39.7861 30.6109 39.7806 30.7591 39.8079 30.9031C39.8352 31.0471 39.8946 31.183 39.9817 31.3009C40.1063 31.4877 40.2516 31.6329 40.3762 31.8197C40.5075 31.9928 40.5786 32.2042 40.5786 32.4215C40.5786 32.6387 40.5075 32.8501 40.3762 33.0232C40.1893 33.5005 39.7949 33.4382 39.4628 33.5005C39.1307 33.5627 39.4628 33.6872 39.4628 33.8325C39.6349 33.8909 39.7878 33.9952 39.9049 34.1342C40.022 34.2732 40.0988 34.4415 40.1271 34.621C40.1467 34.7974 40.1207 34.9758 40.0517 35.1393C39.9826 35.3028 39.8728 35.4459 39.7326 35.5548C39.4478 35.7573 39.1773 35.9791 38.9231 36.2188C38.7028 36.4271 38.5481 36.6951 38.478 36.99C38.408 37.2849 38.4256 37.5938 38.5287 37.8789C38.7784 38.5505 38.833 39.2791 38.6861 39.9804C38.5392 40.6818 38.1967 41.3272 37.6983 41.8423C37.4048 42.1576 37.042 42.4005 36.6386 42.5517C36.2351 42.703 35.802 42.7585 35.3734 42.7138C34.4601 42.6515 33.5882 42.5063 32.6541 42.3818C31.6018 42.1681 30.5312 42.0569 29.4574 42.0498C28.7202 42.0339 27.9958 42.2439 27.3815 42.6515C26.9801 42.9254 26.6636 43.3065 26.4682 43.7513C26.2863 44.1864 26.1473 44.6381 26.053 45.1001C25.9955 45.5749 25.8024 46.023 25.4969 46.391C25.1914 46.759 24.7863 47.0312 24.3301 47.1752C21.4809 47.8364 18.5541 48.1017 15.6324 47.9637C12.6579 48.1094 9.67822 47.8157 6.78946 47.0922C6.60675 47.0448 6.43646 46.9585 6.2903 46.8391C6.14413 46.7196 6.02556 46.57 5.94273 46.4005C5.85989 46.2309 5.81476 46.0454 5.81042 45.8568C5.80609 45.6682 5.84266 45.4808 5.91762 45.3076V45.0379C6.95541 42.054 6.9991 38.8145 6.04217 35.8038C5.33771 33.5385 4.50607 31.3146 3.55119 29.1428C2.63783 26.881 1.64144 24.6399 0.894145 22.3159C0.276892 20.3563 -0.0244111 18.3109 0.00154467 16.2567C0.108501 13.5329 1.01049 10.9001 2.59631 8.68265C5.05246 5.33115 8.45846 2.79383 12.3734 1.39915C14.9811 0.400595 17.7608 -0.0719234 20.5521 0.00885569C23.1569 0.00936938 25.7317 0.564853 28.1048 1.63829C30.4779 2.71172 32.595 4.27845 34.3148 6.23407C35.8935 8.05657 36.9291 10.2852 37.3039 12.6668C37.6884 14.9075 37.7722 17.1894 37.553 19.4523C37.5003 20.5898 37.8867 21.7041 38.6325 22.5649C39.7534 23.9137 40.8743 25.304 41.9538 26.715Z" fill="url(#paint1_linear_374_3604)"/>
</g>
<defs>
<linearGradient id="paint0_linear_374_3604" x1="51.0082" y1="24.3733" x2="133.949" y2="24.3733" gradientUnits="userSpaceOnUse">
<stop stop-color="#FF9966"/>
<stop offset="1" stop-color="#FF8CA9"/>
</linearGradient>
<linearGradient id="paint1_linear_374_3604" x1="0" y1="24" x2="42.5711" y2="24" gradientUnits="userSpaceOnUse">
<stop stop-color="#FF9966"/>
<stop offset="1" stop-color="#FF8CA9"/>
</linearGradient>
<clipPath id="clip0_374_3604">
<rect width="134" height="48" fill="white"/>
</clipPath>
</defs>
</svg>
