<svg width="24" height="25" viewBox="0 0 24 25" fill="none" xmlns="http://www.w3.org/2000/svg">
<g clip-path="url(#clip0_374_3217)">
<path d="M8.02742 19.9056C8.02742 19.9978 7.91613 20.0715 7.77581 20.0715C7.61613 20.0853 7.50484 20.0116 7.50484 19.9056C7.50484 19.8134 7.61613 19.7397 7.75645 19.7397C7.90161 19.7258 8.02742 19.7996 8.02742 19.9056ZM6.52258 19.6982C6.48871 19.7904 6.58548 19.8964 6.73065 19.924C6.85645 19.9701 7.00161 19.924 7.03064 19.8318C7.05968 19.7397 6.96774 19.6337 6.82258 19.5922C6.69677 19.5599 6.55645 19.606 6.52258 19.6982ZM8.66129 19.6198C8.52097 19.6521 8.42419 19.7397 8.43871 19.8457C8.45323 19.9379 8.57903 19.9978 8.72419 19.9655C8.86452 19.9332 8.96129 19.8457 8.94677 19.7535C8.93226 19.6659 8.80161 19.606 8.66129 19.6198ZM11.8452 1.95898C5.13387 1.95898 0 6.81203 0 13.2044C0 18.3156 3.37742 22.6893 8.20161 24.2286C8.82097 24.3346 9.03871 23.9705 9.03871 23.671C9.03871 23.3852 9.02419 21.809 9.02419 20.8412C9.02419 20.8412 5.6371 21.5325 4.92581 19.4678C4.92581 19.4678 4.37419 18.1266 3.58065 17.7809C3.58065 17.7809 2.47258 17.0574 3.65806 17.0712C3.65806 17.0712 4.8629 17.1634 5.52581 18.2603C6.58548 20.0392 8.36129 19.5277 9.05323 19.2235C9.16452 18.4861 9.47903 17.9745 9.82742 17.6703C7.12258 17.3846 4.39355 17.0113 4.39355 12.5776C4.39355 11.3102 4.76129 10.6742 5.53548 9.86305C5.40968 9.56348 4.99839 8.32832 5.66129 6.73368C6.67258 6.43411 9 7.97806 9 7.97806C9.96774 7.71996 11.0081 7.58631 12.0387 7.58631C13.0694 7.58631 14.1097 7.71996 15.0774 7.97806C15.0774 7.97806 17.4048 6.4295 18.4161 6.73368C19.079 8.33293 18.6677 9.56348 18.5419 9.86305C19.3161 10.6788 19.7903 11.3148 19.7903 12.5776C19.7903 17.0251 16.9403 17.38 14.2355 17.6703C14.6806 18.0344 15.0581 18.7257 15.0581 19.8088C15.0581 21.362 15.0435 23.2838 15.0435 23.6617C15.0435 23.9613 15.2661 24.3254 15.8806 24.2194C20.7194 22.6893 24 18.3156 24 13.2044C24 6.81203 18.5565 1.95898 11.8452 1.95898ZM4.70323 17.8547C4.64032 17.9008 4.65484 18.0068 4.7371 18.0943C4.81452 18.1681 4.92581 18.2003 4.98871 18.1404C5.05161 18.0943 5.0371 17.9883 4.95484 17.9008C4.87742 17.827 4.76613 17.7948 4.70323 17.8547ZM4.18064 17.4814C4.14677 17.5413 4.19516 17.615 4.29194 17.6611C4.36935 17.7072 4.46613 17.6934 4.5 17.6288C4.53387 17.5689 4.48548 17.4952 4.38871 17.4491C4.29194 17.4215 4.21452 17.4353 4.18064 17.4814ZM5.74839 19.1221C5.67097 19.182 5.7 19.3203 5.81129 19.4078C5.92258 19.5138 6.0629 19.5277 6.12581 19.4539C6.18871 19.394 6.15968 19.2558 6.0629 19.1682C5.95645 19.0622 5.81129 19.0484 5.74839 19.1221ZM5.19677 18.4446C5.11935 18.4907 5.11935 18.6105 5.19677 18.7165C5.27419 18.8225 5.40484 18.8686 5.46774 18.8225C5.54516 18.7626 5.54516 18.6428 5.46774 18.5368C5.4 18.4308 5.27419 18.3847 5.19677 18.4446Z" fill="#FF8CA9"/>
</g>
<defs>
<clipPath id="clip0_374_3217">
<rect width="24" height="24" fill="white" transform="translate(0 0.458984)"/>
</clipPath>
</defs>
</svg>
