<svg width="90" height="90" viewBox="0 0 90 90" fill="none" xmlns="http://www.w3.org/2000/svg">
<path fill-rule="evenodd" clip-rule="evenodd" d="M13.3578 51.1015C10.1801 42.1435 8.52764 32.7845 8.0192 23.2918C8.0192 22.9401 8.03294 22.5883 8.04687 22.2319C8.0753 21.5043 8.10451 20.7569 8.0192 19.9493C7.89209 18.746 8.40053 18.2112 9.41741 17.6764C12.0056 16.5008 14.6006 15.3252 17.1992 14.148C25.8315 10.2375 34.5041 6.30864 43.1017 2.30083C43.9914 1.89972 44.7541 1.89972 45.771 2.30083C57.0838 7.51514 68.3966 12.7295 79.8365 17.9438C80.5992 18.3449 81.1077 18.746 80.9805 19.8156C80.8958 21.0189 80.8252 22.2221 80.7546 23.4254C80.6133 25.832 80.4721 28.2387 80.2179 30.6453C78.6926 44.8175 74.3708 57.9202 66.3628 69.5521C61.0242 77.3067 54.4145 83.4569 45.6439 86.7994C45.0083 87.0668 43.9914 87.0668 43.3559 86.7994C42.5385 86.3537 41.714 85.923 40.8908 85.4931C38.2575 84.1179 35.6383 82.7501 33.3142 80.9166C23.5267 73.4294 17.5525 62.8671 13.3578 51.1015ZM46.0792 37.1767C49.6258 37.4772 52.7523 38.7254 55.1789 40.8289C57.3955 38.6098 59.5187 36.4832 61.712 34.2642C57.3955 30.4271 52.2157 28.2312 46.0792 28V37.1767ZM35.1365 40.9907C34.3793 40.2405 33.638 39.5088 32.9074 38.7876C31.4768 37.3754 30.0868 36.0033 28.6968 34.6109C31.3567 31.0974 39.873 27.5839 44.4462 28.1387V37.1536C40.923 37.5003 37.7964 38.6792 35.1365 40.9907ZM43.2201 60.8629C41.1717 60.8311 39.6431 59.4348 39.3679 57.3403C39.0622 55.2776 40.2851 53.1831 42.364 52.8023C43.6481 52.5801 44.1067 51.882 44.5347 50.803C45.6048 48.1056 46.736 45.4081 47.9589 42.7742C48.1275 42.424 48.5143 42.1795 48.8985 41.9366C49.0715 41.8273 49.244 41.7182 49.3958 41.6C49.4241 41.8056 49.4757 42.0203 49.5272 42.2347C49.6426 42.7152 49.7578 43.1945 49.6098 43.5675C48.5704 46.2965 47.4087 48.962 46.247 51.6276L46.247 51.6276L46.2469 51.6277L46.2469 51.6278L46.2469 51.6279L46.2468 51.628L46.2468 51.6281C45.7882 52.6436 45.6965 53.4052 46.522 54.389C47.592 55.6584 47.6226 57.2769 46.7971 58.8001C46.0022 60.1964 44.8099 60.9263 43.2201 60.8629ZM69.7149 51.3928C69.4116 45.2905 67.265 40.1127 63.1585 35.7439C60.9419 37.9399 58.8187 40.0433 56.6021 42.2161C58.9587 44.805 60.1019 47.9718 60.4753 51.3928H69.7149ZM27.4131 35.813C28.4951 36.8733 29.5712 37.9336 30.6564 39.0028C31.7239 40.0547 32.8002 41.1152 33.8995 42.1928C31.6129 44.7817 30.353 47.8791 30.0496 51.4157H20.9733C20.39 46.8851 23.7032 38.9335 27.4131 35.813Z" fill="url(#paint0_linear_374_820)"/>
<defs>
<linearGradient id="paint0_linear_374_820" x1="8" y1="44.5" x2="81" y2="44.5" gradientUnits="userSpaceOnUse">
<stop stop-color="#FF9966"/>
<stop offset="1" stop-color="#FF8CA9"/>
</linearGradient>
</defs>
</svg>
