<svg width="90" height="90" viewBox="0 0 90 90" fill="none" xmlns="http://www.w3.org/2000/svg">
<path d="M68.8304 85.8311H20.7067C19.8613 85.8311 19.0159 85.667 18.203 85.3059C16.6747 84.6495 15.4391 83.4024 14.7888 81.8598C14.4637 81.0721 14.2686 80.2188 14.2686 79.3327V11.3294C14.2686 10.4761 14.4311 9.62279 14.7888 8.80229C15.4391 7.25974 16.6747 6.01258 18.203 5.35618C18.9834 5.02798 19.8288 4.83105 20.7067 4.83105H46.9796V21.0114C46.9796 26.0328 51.0116 30.1025 56.0191 30.1353H75.2686V79.3655C75.2686 80.2188 75.106 81.0721 74.7483 81.8926C74.098 83.4352 72.8624 84.6824 71.3341 85.3388C70.5212 85.667 69.6758 85.8311 68.8304 85.8311ZM30.5266 50.5166L25.9418 55.1443L39.6961 69.0272L63.5953 44.9044L59.0106 40.2768L39.7286 59.7391L30.5266 50.5166ZM74.228 24.917H55.9866C53.873 24.917 52.1822 23.2103 52.1822 21.077V6.3736C52.1822 5.5531 52.8325 4.86387 53.6454 4.86387C55.1412 4.86387 56.6044 5.389 57.775 6.3736L73.09 19.2391C73.7728 19.797 74.2931 20.5191 74.6833 21.3067C75.0409 22.1272 75.236 22.9806 75.236 23.8667C75.236 24.4575 74.8133 24.8841 74.228 24.917Z" fill="url(#paint0_linear_374_755)"/>
<defs>
<linearGradient id="paint0_linear_374_755" x1="14.2686" y1="45.3311" x2="75.2686" y2="45.3311" gradientUnits="userSpaceOnUse">
<stop stop-color="#FF9966"/>
<stop offset="1" stop-color="#FF8CA9"/>
</linearGradient>
</defs>
</svg>
