<svg width="90" height="90" viewBox="0 0 90 90" fill="none" xmlns="http://www.w3.org/2000/svg">
<path d="M79.9415 49.6381C80.2495 50.0584 80.512 50.5099 80.7246 50.9852C80.9457 51.3635 81.0375 51.8031 80.9861 52.2378C80.9347 52.6725 80.743 53.0789 80.4398 53.3957C79.8703 53.7148 79.1939 53.9629 78.6244 54.282L77.2362 54.9555C77.0058 55.0557 76.8011 55.2062 76.6372 55.396C76.4732 55.5858 76.3544 55.8099 76.2894 56.0518C76.2244 56.2936 76.215 56.5469 76.2618 56.7928C76.3086 57.0388 76.4105 57.271 76.5599 57.4724C76.7734 57.7914 77.0226 58.0396 77.2362 58.3586C77.4614 58.6544 77.5833 59.0154 77.5833 59.3866C77.5833 59.7579 77.4614 60.1189 77.2362 60.4147C76.9158 61.23 76.2395 61.1236 75.67 61.23C75.1004 61.3363 75.67 61.549 75.67 61.7972C75.9652 61.8969 76.2273 62.0751 76.4281 62.3125C76.6289 62.55 76.7606 62.8376 76.809 63.1443C76.8427 63.4456 76.7982 63.7504 76.6798 64.0297C76.5614 64.309 76.373 64.5534 76.1327 64.7395C75.6443 65.0853 75.1805 65.4644 74.7445 65.8738C74.3667 66.2296 74.1014 66.6875 73.9813 67.1913C73.8612 67.6951 73.8913 68.2228 74.0682 68.7098C74.4965 69.8572 74.59 71.1018 74.3381 72.2999C74.0861 73.498 73.4989 74.6007 72.6443 75.4805C72.141 76.0193 71.5189 76.4342 70.8271 76.6926C70.1352 76.9509 69.3925 77.0457 68.6576 76.9694C67.0914 76.8631 65.5964 76.6149 63.9946 76.4022C62.1901 76.0371 60.3542 75.8471 58.5129 75.835C57.2488 75.8078 56.0067 76.1666 54.9533 76.8631C54.2649 77.3309 53.7222 77.9819 53.3871 78.7419C53.0752 79.4851 52.8368 80.2568 52.6752 81.0461C52.5765 81.8571 52.2455 82.6227 51.7215 83.2513C51.1976 83.8799 50.503 84.345 49.7207 84.591C44.835 85.7205 39.8162 86.1738 34.8062 85.938C29.7056 86.1869 24.596 85.6852 19.6424 84.4492C19.3291 84.3682 19.0371 84.2207 18.7865 84.0167C18.5358 83.8127 18.3325 83.5571 18.1905 83.2675C18.0484 82.9778 17.971 82.661 17.9636 82.3387C17.9562 82.0164 18.0189 81.6964 18.1474 81.4006V80.9397C19.927 75.8423 20.0019 70.3082 18.361 65.1648C17.153 61.2949 15.7269 57.4958 14.0895 53.7857C12.5233 49.9217 10.8147 46.0932 9.53326 42.1229C8.47481 38.7753 7.95814 35.2812 8.00265 31.7718C8.18605 27.1188 9.73277 22.621 12.4521 18.8329C16.6639 13.1074 22.5044 8.77279 29.2177 6.39022C33.6893 4.68435 38.4559 3.87713 43.2423 4.01513C47.709 4.01601 52.1241 4.96496 56.1935 6.79874C60.2629 8.63253 63.8932 11.309 66.8423 14.6499C69.5494 17.7633 71.3253 21.5706 71.968 25.6391C72.6273 29.4669 72.771 33.3653 72.3952 37.2309C72.3047 39.1742 72.9674 41.0778 74.2461 42.5483C76.1683 44.8525 78.0905 47.2276 79.9415 49.6381Z" fill="url(#paint0_linear_374_705)"/>
<defs>
<linearGradient id="paint0_linear_374_705" x1="8" y1="45" x2="81" y2="45" gradientUnits="userSpaceOnUse">
<stop stop-color="#FF9966"/>
<stop offset="1" stop-color="#FF8CA9"/>
</linearGradient>
</defs>
</svg>
