<svg width="43" height="12" viewBox="0 0 43 12" fill="none" xmlns="http://www.w3.org/2000/svg">
<path d="M43 6L33.0505 0.255659L33.0505 11.7443L43 6ZM-8.69813e-08 6.99495L1.53571 6.99495L1.53571 5.00505L8.69813e-08 5.00505L-8.69813e-08 6.99495ZM4.60714 6.99495L7.67857 6.99495L7.67857 5.00505L4.60714 5.00505L4.60714 6.99495ZM10.75 6.99495L13.8214 6.99495L13.8214 5.00505L10.75 5.00505L10.75 6.99495ZM16.8929 6.99495L19.9643 6.99495L19.9643 5.00505L16.8929 5.00505L16.8929 6.99495ZM23.0357 6.99495L26.1071 6.99495L26.1071 5.00505L23.0357 5.00505L23.0357 6.99495ZM29.1786 6.99495L32.25 6.99495L32.25 5.00505L29.1786 5.00505L29.1786 6.99495ZM35.3214 6.99495L38.3929 6.99495L38.3929 5.00505L35.3214 5.00505L35.3214 6.99495ZM43 6L33.0505 0.255659L33.0505 11.7443L43 6ZM-8.69813e-08 6.99495L1.53571 6.99495L1.53571 5.00505L8.69813e-08 5.00505L-8.69813e-08 6.99495ZM4.60714 6.99495L7.67857 6.99495L7.67857 5.00505L4.60714 5.00505L4.60714 6.99495ZM10.75 6.99495L13.8214 6.99495L13.8214 5.00505L10.75 5.00505L10.75 6.99495ZM16.8929 6.99495L19.9643 6.99495L19.9643 5.00505L16.8929 5.00505L16.8929 6.99495ZM23.0357 6.99495L26.1071 6.99495L26.1071 5.00505L23.0357 5.00505L23.0357 6.99495ZM29.1786 6.99495L32.25 6.99495L32.25 5.00505L29.1786 5.00505L29.1786 6.99495ZM35.3214 6.99495L38.3929 6.99495L38.3929 5.00505L35.3214 5.00505L35.3214 6.99495Z" fill="#FFBE66"/>
</svg>
