<svg width="100" height="100" viewBox="0 0 100 100" fill="none" xmlns="http://www.w3.org/2000/svg">
<circle cx="49.7131" cy="49.6691" r="49.6691" fill="white"/>
<path fill-rule="evenodd" clip-rule="evenodd" d="M49.7131 98.3448C76.5959 98.3448 98.3888 76.552 98.3888 49.6691C98.3888 22.7863 76.5959 0.993382 49.7131 0.993382C22.8302 0.993382 1.03733 22.7863 1.03733 49.6691C1.03733 76.552 22.8302 98.3448 49.7131 98.3448ZM49.7131 99.3382C77.1446 99.3382 99.3822 77.1006 99.3822 49.6691C99.3822 22.2376 77.1446 0 49.7131 0C22.2816 0 0.0439453 22.2376 0.0439453 49.6691C0.0439453 77.1006 22.2816 99.3382 49.7131 99.3382Z" fill="#4D00B4"/>
<rect width="61.5897" height="61.5897" transform="translate(18.918 18.8743)" fill="white"/>
<path d="M28.3545 30.2478V55.8882C28.3545 60.5238 32.1124 64.2818 36.7481 64.2818H62.3885C67.0241 64.2818 70.7821 60.5238 70.7821 55.8882V30.2478C70.7821 25.6122 67.0241 21.8542 62.3885 21.8542H36.7481C32.1124 21.8542 28.3545 25.6122 28.3545 30.2478Z" fill="#99FE5B"/>
<path d="M50.8477 56.5605C54.3979 56.5605 57.8026 55.1502 60.313 52.6398C62.8233 50.1295 64.2336 46.7247 64.2336 43.1746C64.2336 39.6244 62.8233 36.2196 60.313 33.7092C57.8026 31.1989 54.3979 29.7886 50.8477 29.7886V56.5605Z" fill="#131313"/>
<path d="M44.9336 40.3186H39.6279V56.5605H44.9336V40.3186Z" fill="#131313"/>
<path d="M42.2551 36.7168C44.1683 36.7168 45.7193 35.1659 45.7193 33.2527C45.7193 31.3395 44.1683 29.7886 42.2551 29.7886C40.3419 29.7886 38.791 31.3395 38.791 33.2527C38.791 35.1659 40.3419 36.7168 42.2551 36.7168Z" fill="#131313"/>
<path fill-rule="evenodd" clip-rule="evenodd" d="M36.3498 69.4267H34.9593V75.8555H36.3498V69.4267ZM35.0105 68.1001C35.1805 68.2702 35.3932 68.3552 35.6483 68.3552C35.9117 68.3552 36.1286 68.2702 36.2989 68.1001C36.4772 67.9215 36.5665 67.7089 36.5665 67.4623C36.5665 67.2072 36.4772 66.9946 36.2989 66.8245C36.1286 66.6459 35.9117 66.5566 35.6483 66.5566C35.3932 66.5566 35.1805 66.6459 35.0105 66.8245C34.8404 66.9946 34.7553 67.2072 34.7553 67.4623C34.7553 67.7089 34.8404 67.9215 35.0105 68.1001ZM67.6069 69.4267H66.2164V75.8555H67.6069V69.4267ZM66.2674 68.1001C66.4374 68.2702 66.6503 68.3552 66.9052 68.3552C67.1688 68.3552 67.3857 68.2702 67.5558 68.1001C67.7343 67.9215 67.8238 67.7089 67.8238 67.4623C67.8238 67.2072 67.7343 66.9946 67.5558 66.8245C67.3857 66.6459 67.1688 66.5566 66.9052 66.5566C66.6503 66.5566 66.4374 66.6459 66.2674 66.8245C66.0974 66.9946 66.0124 67.2072 66.0124 67.4623C66.0124 67.7089 66.0974 67.9215 66.2674 68.1001ZM71.6155 66.9267H68.8092V75.8557H71.6155C72.4658 75.8557 73.2312 75.6856 73.9115 75.3454C74.6001 75.0053 75.1445 74.4993 75.5442 73.8275C75.9525 73.1557 76.1565 72.3436 76.1565 71.3912C76.1565 70.4388 75.9525 69.6267 75.5442 68.9549C75.1445 68.2831 74.6001 67.7771 73.9115 67.437C73.2312 67.0968 72.4658 66.9267 71.6155 66.9267ZM73.0697 74.2229C72.6019 74.4355 72.0833 74.5418 71.5136 74.5418H70.276V68.2278H71.5136C72.0833 68.2278 72.6019 68.3384 73.0697 68.5595C73.5375 68.772 73.9115 69.1164 74.1921 69.5927C74.4812 70.0688 74.6257 70.6684 74.6257 71.3912C74.6257 72.114 74.4812 72.7135 74.1921 73.1897C73.9115 73.6574 73.5375 74.0018 73.0697 74.2229ZM64.1692 75.9576C63.9057 75.9576 63.6888 75.8726 63.5188 75.7025C63.3486 75.5324 63.2637 75.3198 63.2637 75.0647C63.2637 74.8096 63.3486 74.597 63.5188 74.4269C63.6888 74.2568 63.9057 74.1718 64.1692 74.1718C64.4328 74.1718 64.6497 74.2568 64.8197 74.4269C64.9898 74.597 65.0749 74.8096 65.0749 75.0647C65.0749 75.3198 64.9898 75.5324 64.8197 75.7025C64.6497 75.8726 64.4328 75.9576 64.1692 75.9576ZM57.8491 75.5367C58.3509 75.8173 58.9206 75.9576 59.5584 75.9576C60.1962 75.9576 60.7659 75.8173 61.2677 75.5367C61.7695 75.2476 62.1607 74.8521 62.4413 74.3504C62.7304 73.8487 62.8749 73.2789 62.8749 72.6411C62.8749 72.0034 62.7304 71.4336 62.4413 70.9319C62.1607 70.4302 61.7695 70.039 61.2677 69.7584C60.7659 69.4692 60.1962 69.3247 59.5584 69.3247C58.9206 69.3247 58.3509 69.4692 57.8491 69.7584C57.3473 70.039 56.9519 70.4302 56.663 70.9319C56.3824 71.4336 56.2421 72.0034 56.2421 72.6411C56.2421 73.2789 56.3824 73.8487 56.663 74.3504C56.9519 74.8521 57.3473 75.2476 57.8491 75.5367ZM58.1679 74.1591C57.8194 73.7679 57.6451 73.2619 57.6451 72.6411C57.6451 72.0204 57.8194 71.5144 58.1679 71.1232C58.5251 70.7321 58.9887 70.5365 59.5584 70.5365C60.1281 70.5365 60.5874 70.7321 60.936 71.1232C61.2932 71.5144 61.4717 72.0204 61.4717 72.6411C61.4717 73.2619 61.2932 73.7679 60.936 74.1591C60.5874 74.5502 60.1281 74.7458 59.5584 74.7458C58.9887 74.7458 58.5251 74.5502 58.1679 74.1591ZM52.1284 75.9576C51.4906 75.9576 50.9377 75.8173 50.4699 75.5367C50.0108 75.2561 49.6582 74.8649 49.4113 74.3632C49.1732 73.8615 49.0541 73.2874 49.0541 72.6412C49.0541 71.9949 49.1732 71.4209 49.4113 70.9192C49.6582 70.4175 50.0108 70.0263 50.4699 69.7457C50.9294 69.465 51.4734 69.3247 52.103 69.3247C52.5109 69.3247 52.8894 69.4098 53.2381 69.5798C53.5953 69.7414 53.8717 69.9583 54.0672 70.2304V66.8246H55.4575V75.8556H54.0672V75.0392C53.914 75.3113 53.659 75.5324 53.3018 75.7025C52.9448 75.8726 52.5536 75.9576 52.1284 75.9576ZM50.4446 72.6412C50.4446 73.2704 50.6148 73.7807 50.9549 74.1718C51.2949 74.5545 51.7457 74.7459 52.3069 74.7459C52.8682 74.7459 53.3188 74.5545 53.659 74.1718C53.9991 73.7807 54.1691 73.2704 54.1691 72.6412C54.1691 72.0034 53.9991 71.4932 53.659 71.1105C53.3188 70.7278 52.8682 70.5365 52.3069 70.5365C51.7457 70.5365 51.2949 70.7278 50.9549 71.1105C50.6148 71.4932 50.4446 72.0034 50.4446 72.6412ZM46.5268 70.7661C46.7818 70.9957 46.9094 71.3061 46.9094 71.6972V71.7865L45.6976 71.9141C44.7027 72.0161 43.9585 72.2415 43.4655 72.5901C42.9805 72.9388 42.7383 73.4278 42.7383 74.057C42.7383 74.4227 42.8276 74.7501 43.0061 75.0392C43.1932 75.3283 43.4483 75.5537 43.7714 75.7153C44.1031 75.8768 44.4773 75.9576 44.8938 75.9576C45.3193 75.9576 45.7146 75.8598 46.0803 75.6642C46.446 75.4601 46.7223 75.1965 46.9094 74.8734V75.8555H48.2742V71.8503C48.2742 71.0595 48.0233 70.4429 47.5215 70.0008C47.0199 69.55 46.3522 69.3247 45.5191 69.3247C44.8301 69.3247 44.2392 69.516 43.7461 69.8987C43.2528 70.2814 42.955 70.7873 42.8531 71.4166L44.1031 71.6462C44.1458 71.2636 44.2944 70.9659 44.5495 70.7533C44.8046 70.5322 45.1279 70.4217 45.5191 70.4217C45.9442 70.4217 46.2802 70.5365 46.5268 70.7661ZM44.3966 74.6438C44.2009 74.4822 44.1031 74.2739 44.1031 74.0188C44.1031 73.7381 44.2349 73.5085 44.4983 73.33C44.7706 73.1429 45.1661 73.0196 45.6848 72.9601L46.9094 72.8197V73.0876C46.9009 73.6233 46.7434 74.057 46.4373 74.3887C46.1314 74.7203 45.7105 74.8861 45.1744 74.8861C44.8515 74.8861 44.5921 74.8053 44.3966 74.6438ZM36.7998 69.4267H38.2158L39.8101 74.2355L41.4045 69.4267H42.8332L40.4863 75.8555H39.1469L36.7998 69.4267ZM34.405 70.7788C34.1756 70.6768 33.899 70.6258 33.5761 70.6258C33.0657 70.6258 32.6405 70.8639 32.3003 71.3401C31.9687 71.8078 31.8028 72.5136 31.8028 73.4575V75.8556H30.4127V69.4267H31.8028V70.6513C31.973 70.2686 32.2451 69.954 32.6195 69.7074C32.9935 69.4522 33.376 69.3247 33.7672 69.3247C34.0565 69.3247 34.2945 69.363 34.4817 69.4395L34.405 70.7788ZM26.9082 66.9266H23.3877V75.8555H24.893V72.2584H26.9082C27.4949 72.2584 28.0096 72.1521 28.4515 71.9396C28.8939 71.7185 29.2339 71.4081 29.4723 71.0084C29.7102 70.6002 29.8291 70.1283 29.8291 69.5925C29.8291 69.0568 29.7102 68.5891 29.4723 68.1894C29.2339 67.7812 28.8939 67.4709 28.4515 67.2583C28.0096 67.0372 27.4949 66.9266 26.9082 66.9266ZM27.9033 70.6002C27.6394 70.8383 27.2737 70.9574 26.8063 70.9574H24.893V68.2277H26.8063C27.2737 68.2277 27.6394 68.351 27.9033 68.5976C28.1752 68.8357 28.3112 69.1673 28.3112 69.5925C28.3112 70.0177 28.1752 70.3536 27.9033 70.6002Z" fill="#131313"/>
</svg>
