<svg width="100" height="100" viewBox="0 0 100 100" fill="none" xmlns="http://www.w3.org/2000/svg">
<circle cx="50.007" cy="49.6691" r="49.6691" fill="white"/>
<path fill-rule="evenodd" clip-rule="evenodd" d="M50.007 98.3448C76.8899 98.3448 98.6827 76.552 98.6827 49.6691C98.6827 22.7863 76.8899 0.993382 50.007 0.993382C23.1241 0.993382 1.33127 22.7863 1.33127 49.6691C1.33127 76.552 23.1241 98.3448 50.007 98.3448ZM50.007 99.3382C77.4385 99.3382 99.6761 77.1006 99.6761 49.6691C99.6761 22.2376 77.4385 0 50.007 0C22.5755 0 0.337891 22.2376 0.337891 49.6691C0.337891 77.1006 22.5755 99.3382 50.007 99.3382Z" fill="#4D00B4"/>
<rect width="61.5897" height="61.5897" transform="translate(19.2129 18.8743)" fill="white"/>
<g clip-path="url(#clip0_74_15473)">
<rect width="59.6029" height="59.6029" transform="translate(20.2061 19.8677)" fill="white"/>
<path d="M46.0668 47.3595C45.3013 48.6466 33.3606 48.8629 26.8463 45.2121C20.3321 41.5614 23.4969 30.3988 30.1043 27.4677C36.7117 24.5366 46.8323 46.0726 46.0668 47.3595Z" fill="#8B5CF6"/>
<path d="M45.9771 51.827C46.7425 53.1141 40.9653 63.2599 34.451 66.9107C27.9367 70.5614 19.5602 62.3197 20.2488 55.2999C20.9374 48.2798 45.2116 50.54 45.9771 51.827Z" fill="#8B5CF6"/>
<path d="M49.9168 54.1365C51.4479 54.1365 57.611 64.0662 57.611 71.3677C57.611 78.669 46.0697 81.5899 40.1509 77.501C34.2321 73.4122 48.3858 54.1363 49.9168 54.1365Z" fill="#8B5CF6"/>
<path d="M53.9482 51.9794C54.7137 50.6922 66.6546 50.4761 73.1687 54.1268C79.6829 57.7776 76.5182 68.94 69.9108 71.8711C63.3032 74.8022 53.1828 53.2663 53.9482 51.9794Z" fill="#8B5CF6"/>
<path d="M54.0391 47.5112C53.2736 46.2242 59.0508 36.0783 65.5651 32.4275C72.0795 28.7767 80.456 37.0186 79.7675 44.0384C79.0788 51.0585 54.8046 48.7983 54.0391 47.5112Z" fill="#8B5CF6"/>
<path d="M50.0975 45.2015C48.5664 45.2015 42.4033 35.2718 42.4033 27.9703C42.4033 20.6688 53.9447 17.748 59.8634 21.8369C65.7823 25.9258 51.6285 45.2016 50.0975 45.2015Z" fill="#8B5CF6"/>
</g>
<defs>
<clipPath id="clip0_74_15473">
<rect width="59.6029" height="59.6029" fill="white" transform="translate(20.2061 19.8677)"/>
</clipPath>
</defs>
</svg>
