<svg width="45" height="40" viewBox="0 0 45 40" fill="none" xmlns="http://www.w3.org/2000/svg">
<g clip-path="url(#clip0_0_165)">
<path fill-rule="evenodd" clip-rule="evenodd" d="M13.0297 0L35.3426 0.997537L44.3762 21.0734L31.6314 39.4214L9.19726 37.9844L0 16.2324L13.0297 0ZM29.388 11.5722L13.2171 18.6389L27.0422 29.3304L29.388 11.5722ZM27.5158 8.03116L14.5926 2.46561L11.8779 14.1674L27.5158 8.03116ZM24.2402 32.0205L10.1952 21.9894L10.5349 35.5822L24.2402 32.0205ZM42.1328 21.0291L32.5618 11.3151L30.0357 29.9948L42.1328 21.0291ZM27.5332 34.2055L15.688 37.302L29.6179 38.1942L27.5332 34.2055ZM40.2624 25.4364L29.8937 33.1621L31.954 37.1894L40.2624 25.4364ZM35.358 3.80252L33.3441 7.9377L40.8402 15.5591L35.358 3.80252ZM32.8487 1.8237L19.6854 1.28927L30.5436 6.03959L32.8487 1.8237ZM11.1074 3.73596L1.88742 15.3808L8.05176 16.6867L11.1074 3.73596ZM7.68007 18.971L1.48601 17.6593L7.94903 32.8884L7.68007 18.971Z" fill="white"/>
</g>
<defs>
<clipPath id="clip0_0_165">
<rect width="44.7727" height="39.798" fill="white" transform="scale(1.00508)"/>
</clipPath>
</defs>
</svg>
