<svg width="34" height="34" viewBox="0 0 34 34" fill="none" xmlns="http://www.w3.org/2000/svg">
<g clip-path="url(#clip0_0_161)">
<path d="M33.532 29.3953L26.9119 22.7752C26.6131 22.4764 26.2081 22.3104 25.7831 22.3104H24.7008C26.5335 19.9665 27.6224 17.0183 27.6224 13.8112C27.6224 6.18185 21.4406 0 13.8112 0C6.18185 0 0 6.18185 0 13.8112C0 21.4406 6.18185 27.6224 13.8112 27.6224C17.0183 27.6224 19.9665 26.5335 22.3104 24.7008V25.7832C22.3104 26.2081 22.4764 26.6132 22.7752 26.912L29.3953 33.532C30.0195 34.1562 31.0288 34.1562 31.6463 33.532L33.5254 31.6529C34.1496 31.0288 34.1496 30.0195 33.532 29.3953ZM13.8112 22.3104C9.11673 22.3104 5.31201 18.5123 5.31201 13.8112C5.31201 9.11673 9.11009 5.31201 13.8112 5.31201C18.5057 5.31201 22.3104 9.11009 22.3104 13.8112C22.3104 18.5057 18.5123 22.3104 13.8112 22.3104Z" fill="#FF9966"/>
</g>
<defs>
<clipPath id="clip0_0_161">
<rect width="33.8283" height="33.8283" fill="white" transform="scale(1.00508)"/>
</clipPath>
</defs>
</svg>
